<?xml version="1.0" encoding="UTF-8"?><svg id="Layer_2" xmlns="http://www.w3.org/2000/svg" viewBox="0 0 1111.95 205.99"><g id="Layer_1-2"><path d="m313.37,132.31c-10.52,0-19.37-2.35-26.55-7.06-7.18-4.7-12.24-11.1-15.17-19.19l17.9-10.47c4.15,10.83,12.29,16.24,24.43,16.24,5.87,0,10.17-1.06,12.9-3.19s4.1-4.8,4.1-8.04c0-3.74-1.67-6.65-5.01-8.72-3.34-2.07-9.31-4.32-17.91-6.75-4.76-1.42-8.78-2.83-12.06-4.25-3.29-1.42-6.58-3.31-9.86-5.69-3.29-2.38-5.79-5.39-7.51-9.03-1.72-3.64-2.58-7.89-2.58-12.75,0-9.61,3.41-17.27,10.24-22.99,6.83-5.71,15.05-8.57,24.66-8.57,8.6,0,16.16,2.1,22.69,6.3,6.52,4.2,11.61,10.04,15.25,17.53l-17.6,10.17c-4.25-9.1-11.03-13.66-20.33-13.66-4.35,0-7.76.99-10.24,2.96-2.48,1.97-3.72,4.53-3.72,7.66,0,3.34,1.39,6.05,4.17,8.12,2.78,2.07,8.12,4.32,16.01,6.75,3.24,1.01,5.69,1.8,7.36,2.35,1.67.56,3.95,1.42,6.83,2.58,2.88,1.16,5.11,2.25,6.68,3.26,1.57,1.01,3.36,2.38,5.39,4.1,2.02,1.72,3.56,3.49,4.63,5.31,1.06,1.82,1.97,4.02,2.73,6.6.76,2.58,1.14,5.39,1.14,8.42,0,9.81-3.57,17.6-10.7,23.37-7.13,5.77-16.41,8.65-27.84,8.65Z" style="fill:#fff;"/><path d="m408.81,52.19c10.22,0,18.94,3.87,26.17,11.61,7.23,7.74,10.85,17.22,10.85,28.45s-3.62,20.71-10.85,28.45c-7.23,7.74-15.96,11.61-26.17,11.61s-18.82-3.69-24.58-11.08v39.3h-19.57V54.32h19.57v8.95c5.77-7.38,13.96-11.08,24.58-11.08Zm-18.66,55.46c3.95,4,8.95,5.99,15.02,5.99s11.1-2,15.1-5.99c4-3.99,5.99-9.13,5.99-15.4s-2-11.4-5.99-15.4c-4-4-9.03-5.99-15.1-5.99s-11.08,2-15.02,5.99c-3.95,4-5.92,9.13-5.92,15.4s1.97,11.41,5.92,15.4Z" style="fill:#fff;"/><path d="m517.3,54.32h19.57v75.87h-19.57v-8.95c-5.87,7.39-14.11,11.08-24.73,11.08s-18.79-3.87-26.02-11.61c-7.23-7.74-10.85-17.22-10.85-28.45s3.62-20.71,10.85-28.45c7.23-7.74,15.91-11.61,26.02-11.61,10.62,0,18.86,3.69,24.73,11.08v-8.95Zm-36.11,53.34c3.95,4,8.95,5.99,15.02,5.99s11.1-2,15.1-5.99c3.99-3.99,5.99-9.13,5.99-15.4s-2-11.4-5.99-15.4c-4-4-9.03-5.99-15.1-5.99s-11.08,2-15.02,5.99c-3.95,4-5.92,9.13-5.92,15.4s1.97,11.41,5.92,15.4Z" style="fill:#fff;"/><path d="m596.81,52.19c8.29,0,15.15,2.78,20.56,8.35,5.41,5.56,8.12,13.25,8.12,23.06v46.58h-19.57v-44.16c0-5.06-1.37-8.93-4.1-11.61-2.73-2.68-6.37-4.02-10.93-4.02-5.06,0-9.1,1.57-12.14,4.7-3.04,3.14-4.55,7.84-4.55,14.11v40.97h-19.57V54.32h19.57v8.5c4.75-7.08,12.29-10.62,22.61-10.62Z" style="fill:#fff;"/><path d="m651.89,45.21c-3.24,0-6.05-1.19-8.42-3.56-2.38-2.38-3.56-5.18-3.56-8.42s1.19-6.07,3.56-8.5c2.38-2.43,5.18-3.64,8.42-3.64s6.2,1.21,8.57,3.64c2.38,2.43,3.57,5.26,3.57,8.5s-1.19,6.05-3.57,8.42c-2.38,2.38-5.23,3.56-8.57,3.56Zm-9.71,84.97V54.32h19.57v75.87h-19.57Z" style="fill:#fff;"/><path d="m737.31,54.32h19.57v75.87h-19.57v-8.95c-5.87,7.39-14.11,11.08-24.73,11.08s-18.79-3.87-26.02-11.61c-7.23-7.74-10.85-17.22-10.85-28.45s3.62-20.71,10.85-28.45c7.23-7.74,15.91-11.61,26.02-11.61,10.62,0,18.86,3.69,24.73,11.08v-8.95Zm-36.11,53.34c3.95,4,8.95,5.99,15.02,5.99s11.1-2,15.1-5.99c3.99-3.99,5.99-9.13,5.99-15.4s-2-11.4-5.99-15.4c-4-4-9.03-5.99-15.1-5.99s-11.08,2-15.02,5.99c-3.95,4-5.92,9.13-5.92,15.4s1.97,11.41,5.92,15.4Z" style="fill:#fff;"/><path d="m818.8,52.19c10.22,0,18.94,3.87,26.17,11.61,7.23,7.74,10.85,17.22,10.85,28.45s-3.62,20.71-10.85,28.45c-7.23,7.74-15.96,11.61-26.17,11.61s-18.82-3.69-24.58-11.08v8.95h-19.57V23.97h19.57v39.3c5.77-7.38,13.96-11.08,24.58-11.08Zm-18.66,55.46c3.95,4,8.95,5.99,15.02,5.99s11.1-2,15.1-5.99c4-3.99,5.99-9.13,5.99-15.4s-2-11.4-5.99-15.4c-4-4-9.03-5.99-15.1-5.99s-11.08,2-15.02,5.99c-3.95,4-5.92,9.13-5.92,15.4s1.97,11.41,5.92,15.4Z" style="fill:#fff;"/><path d="m934.27,120.7c-7.79,7.74-17.3,11.61-28.53,11.61s-20.71-3.87-28.45-11.61c-7.74-7.74-11.61-17.22-11.61-28.45s3.87-20.71,11.61-28.45,17.22-11.61,28.45-11.61,20.74,3.87,28.53,11.61c7.79,7.74,11.68,17.22,11.68,28.45s-3.9,20.71-11.68,28.45Zm-43.17-13.43c3.89,3.95,8.77,5.92,14.64,5.92s10.77-1.97,14.72-5.92c3.95-3.95,5.92-8.95,5.92-15.02s-1.97-11.08-5.92-15.02c-3.95-3.95-8.85-5.92-14.72-5.92s-10.75,1.97-14.64,5.92c-3.89,3.95-5.84,8.95-5.84,15.02s1.95,11.08,5.84,15.02Z" style="fill:#fff;"/><path d="m959.76,130.19V19.42h19.57v110.77h-19.57Z" style="fill:#fff;"/><path d="m1006.95,45.21c-3.24,0-6.05-1.19-8.42-3.56-2.38-2.38-3.57-5.18-3.57-8.42s1.19-6.07,3.57-8.5c2.38-2.43,5.18-3.64,8.42-3.64s6.2,1.21,8.57,3.64c2.38,2.43,3.57,5.26,3.57,8.5s-1.19,6.05-3.57,8.42c-2.38,2.38-5.23,3.56-8.57,3.56Zm-9.71,84.97V54.32h19.57v75.87h-19.57Z" style="fill:#fff;"/><path d="m1092.83,54.32h19.12v72.23c0,11.73-3.87,20.69-11.61,26.86-7.74,6.17-17.07,9.26-28,9.26-8.19,0-15.4-1.57-21.62-4.7-6.22-3.14-11-7.74-14.34-13.81l16.69-9.56c3.84,7.08,10.47,10.62,19.88,10.62,6.17,0,11.02-1.62,14.57-4.86,3.54-3.24,5.31-7.84,5.31-13.81v-8.19c-5.76,7.69-13.86,11.53-24.28,11.53s-19.7-3.77-26.93-11.3c-7.23-7.54-10.85-16.71-10.85-27.54s3.64-19.88,10.92-27.46,16.24-11.38,26.86-11.38,18.51,3.85,24.28,11.53v-9.41Zm-36.49,51.67c4,3.89,9.08,5.84,15.25,5.84s11.25-1.95,15.25-5.84c3.99-3.89,5.99-8.88,5.99-14.95s-2-10.9-5.99-14.79c-4-3.89-9.08-5.84-15.25-5.84s-11.25,1.95-15.25,5.84c-4,3.9-5.99,8.83-5.99,14.79s2,11.05,5.99,14.95Z" style="fill:#fff;"/><circle cx="102.48" cy="102.48" r="102.48" style="fill:#ffc300;"/><path d="m155.28,125.51c-25.63-17.5-43.12-9.76-58.65-2.89-5.9,2.61-11.54,5.11-17.39,6.33v14.52c4.25-1.22,8.62-3.15,13.14-5.15,16.76-7.42,35.55-15.73,62.9,1.51v-14.32Zm-76.04-4.4c4.62-1.18,9.37-3.28,14.31-5.47,16.52-7.31,35.01-15.49,61.73.78v-30.51l-38.02-21.95-38.02,21.95v35.2Zm-27.85,15.41c2.99,2.6,6.43,4.67,10.19,6.07,3.12,1.17,6.48,1.87,10.01,2.04v-15.09c-10.19-.69-19.35-5.11-26.14-11.9-7.41-7.41-12-17.65-12-28.96s4.59-21.55,12-28.97c7.41-7.41,17.66-12,28.97-12,5.38,0,10.54,1.05,15.27,2.95,3.64,1.46,7.02,3.43,10.05,5.82l-7.25,4.18c-1.77-1.15-3.66-2.13-5.64-2.93-3.83-1.54-8.02-2.39-12.44-2.39-9.2,0-17.53,3.73-23.56,9.76-6.03,6.03-9.76,14.36-9.76,23.56s3.73,17.53,9.76,23.56c5.41,5.4,12.66,8.96,20.73,9.64v-40.34l1.93-1.11,14.34-8.28,24.94-14.4,2.57-1.48,1.9-1.09,1.9,1.09,41.84,24.16,1.93,1.11v73.08l-6.08-4.48c-27.14-19.99-45.31-11.95-61.39-4.83-7.4,3.27-14.39,6.37-21.9,7h-.31c-5.01.01-9.84-.9-14.32-2.58-4.64-1.73-8.87-4.27-12.52-7.45l4.99-5.76Z" style="fill:#001d3d;"/><path d="m563.25,205.43l-5.69-9.77h-4.2v9.77h-5.55v-28.15h11.26c2.6,0,4.81.91,6.64,2.73,1.82,1.82,2.73,4.02,2.73,6.59,0,1.74-.5,3.36-1.49,4.85-.99,1.49-2.31,2.61-3.94,3.36l6.23,10.62h-5.99Zm-9.89-22.96v8.32h5.71c1.05,0,1.94-.41,2.69-1.23.75-.82,1.13-1.8,1.13-2.96s-.38-2.13-1.13-2.94c-.75-.8-1.65-1.21-2.69-1.21h-5.71Z" style="fill:#fff;"/><path d="m584.08,200.12h11.86v5.31h-17.41v-28.15h17.21v5.31h-11.66v5.99h10.66v5.23h-10.66v6.31Z" style="fill:#fff;"/><path d="m624.82,205.43l-1.79-5.07h-11.56l-1.69,5.07h-5.99l9.85-28.15h6.88l9.93,28.15h-5.63Zm-11.55-10.25h7.92l-4.06-11.5-3.86,11.5Z" style="fill:#fff;"/><path d="m644.76,200.12h10.74v5.31h-16.29v-28.15h5.55v22.84Z" style="fill:#fff;"/><path d="m686.3,200.12h11.86v5.31h-17.41v-28.15h17.21v5.31h-11.66v5.99h10.66v5.23h-10.66v6.31Z" style="fill:#fff;"/><path d="m717.7,205.99c-2.79,0-5.13-.62-7.04-1.87-1.9-1.25-3.24-2.94-4.02-5.09l4.74-2.77c1.1,2.87,3.26,4.3,6.47,4.3,1.55,0,2.69-.28,3.42-.84.72-.56,1.09-1.27,1.09-2.13,0-.99-.44-1.76-1.33-2.31-.89-.55-2.47-1.15-4.75-1.79-1.26-.38-2.33-.75-3.2-1.13-.87-.38-1.74-.88-2.61-1.51-.87-.63-1.54-1.43-1.99-2.39-.46-.97-.68-2.09-.68-3.38,0-2.55.9-4.58,2.71-6.09,1.81-1.51,3.99-2.27,6.53-2.27,2.28,0,4.28.56,6.01,1.67,1.73,1.11,3.08,2.66,4.04,4.64l-4.66,2.69c-1.13-2.41-2.92-3.62-5.39-3.62-1.15,0-2.06.26-2.71.78-.66.52-.99,1.2-.99,2.03,0,.88.37,1.6,1.11,2.15.74.55,2.15,1.15,4.24,1.79.86.27,1.51.48,1.95.62.44.15,1.05.38,1.81.68.76.31,1.35.6,1.77.86.42.27.89.63,1.43,1.09.54.46.94.93,1.23,1.41s.52,1.07.72,1.75c.2.68.3,1.43.3,2.23,0,2.6-.95,4.66-2.84,6.19-1.89,1.53-4.35,2.29-7.38,2.29Z" style="fill:#fff;"/><path d="m755.18,177.28v5.31h-7.6v22.84h-5.55v-22.84h-7.56v-5.31h20.71Z" style="fill:#fff;"/><path d="m780.76,205.43l-1.79-5.07h-11.56l-1.69,5.07h-5.99l9.85-28.15h6.88l9.93,28.15h-5.63Zm-11.55-10.25h7.92l-4.06-11.5-3.86,11.5Z" style="fill:#fff;"/><path d="m811.72,177.28v5.31h-7.6v22.84h-5.55v-22.84h-7.56v-5.31h20.71Z" style="fill:#fff;"/><path d="m826.4,200.12h11.86v5.31h-17.41v-28.15h17.21v5.31h-11.66v5.99h10.66v5.23h-10.66v6.31Z" style="fill:#fff;"/><line x1="855.82" y1="191.35" x2="1100.01" y2="191.35" style="fill:#fff; stroke:#fff; stroke-miterlimit:10;"/><line x1="287.51" y1="191.35" x2="528.74" y2="191.35" style="fill:#fff; stroke:#fff; stroke-miterlimit:10;"/></g></svg>